<?xml version="1.0" standalone="no"?>
<!DOCTYPE svg PUBLIC "-//W3C//DTD SVG 20010904//EN"
 "http://www.w3.org/TR/2001/REC-SVG-20010904/DTD/svg10.dtd">
<svg version="1.0" xmlns="http://www.w3.org/2000/svg"
 width="1080.000000pt" height="1080.000000pt" viewBox="0 0 1080.000000 1080.000000"
 preserveAspectRatio="xMidYMid meet">

<g transform="translate(0.000000,1080.000000) scale(0.100000,-0.100000)"
fill="#000000" stroke="none">
<path d="M0 5400 l0 -5400 5400 0 5400 0 0 5400 0 5400 -5400 0 -5400 0 0
-5400z m5820 2945 c405 -56 744 -210 1008 -460 302 -285 505 -696 591 -1195
40 -237 45 -338 45 -1075 l1 -710 -31 -65 c-55 -115 -156 -194 -283 -221 -32
-7 -125 -9 -240 -7 -160 4 -193 7 -239 25 -102 41 -183 122 -225 225 -22 52
-22 62 -22 584 l0 530 38 76 c43 88 102 146 187 187 54 26 58 26 287 26 149 0
233 4 233 10 0 6 -5 62 -11 125 -47 527 -219 956 -492 1234 -264 269 -613 410
-1072 435 -188 10 -188 10 -375 0 -276 -15 -515 -71 -707 -167 -516 -260 -808
-791 -866 -1579 l-4 -52 231 -3 231 -3 60 -29 c114 -56 195 -166 215 -292 14
-85 13 -949 -1 -1016 -23 -107 -96 -211 -184 -263 -82 -47 -148 -57 -364 -53
l-197 3 -76 38 c-88 43 -146 102 -187 187 l-26 55 -2 645 c-1 654 5 871 33
1060 92 636 373 1145 793 1438 123 86 296 173 429 216 183 59 313 84 577 110
92 9 535 -4 645 -19z m-520 -920 c51 -123 187 -387 265 -515 118 -194 244
-362 420 -560 376 -421 445 -900 202 -1395 -47 -95 -229 -385 -243 -385 -5 0
-3 5 71 175 63 146 128 345 157 480 19 93 23 139 23 295 0 201 -13 274 -70
405 -72 163 -228 336 -412 459 -92 61 -309 176 -332 176 -7 0 -11 -374 -13
-1182 l-3 -1183 -23 -80 c-92 -333 -340 -532 -687 -551 -167 -10 -328 38 -401
118 -45 50 -55 79 -56 154 -1 257 266 570 567 664 47 15 107 24 180 27 94 4
124 1 203 -19 l92 -24 0 1530 c0 881 4 1526 9 1521 5 -6 27 -55 51 -110z
m-2050 -1970 c0 -223 -3 -405 -7 -405 -3 0 -57 33 -119 73 l-113 72 0 266 -1
266 113 66 c61 37 115 67 120 67 4 0 7 -182 7 -405z m4426 338 l114 -67 0
-263 0 -263 -114 -75 c-62 -41 -116 -75 -120 -75 -3 0 -6 182 -6 405 0 223 3
405 6 405 3 0 57 -30 120 -67z m-3398 -2955 l2 -238 -30 0 -30 0 0 241 0 240
28 -3 27 -3 3 -237z m762 2 l0 -240 -25 0 c-20 0 -25 5 -25 27 l0 26 -24 -22
c-98 -93 -268 -10 -269 132 -1 106 55 169 158 175 52 3 65 0 98 -22 l37 -25 0
94 c0 95 0 95 25 95 l25 0 0 -240z m656 195 c36 -15 39 -21 25 -44 -8 -12 -15
-11 -50 3 -80 31 -161 16 -190 -35 -13 -24 -13 -29 3 -53 20 -31 33 -37 135
-67 94 -26 131 -60 131 -117 0 -117 -179 -170 -308 -92 -28 17 -31 23 -22 40
10 19 11 19 53 -3 31 -16 59 -22 110 -22 63 0 71 2 93 28 50 59 24 92 -105
130 -99 30 -130 50 -146 96 -10 32 -11 31 -64 -91 -112 -254 -140 -307 -171
-323 -60 -31 -152 -7 -130 35 9 17 13 17 38 5 46 -25 97 4 107 59 5 24 -7 61
-58 173 -85 184 -84 183 -54 183 22 0 31 -16 88 -141 57 -128 64 -139 73 -118
97 225 113 254 139 257 18 2 29 11 33 27 20 80 160 116 270 70z m-2256 -145
c52 -88 96 -160 99 -160 3 0 47 71 96 158 70 121 95 158 113 160 l22 3 0 -225
0 -226 -25 0 -25 0 -2 169 -3 170 -84 -145 c-46 -80 -88 -143 -95 -141 -6 2
-46 62 -88 133 -42 71 -81 136 -87 144 -7 10 -10 -40 -10 -157 l-1 -173 -25 0
-25 0 0 225 0 225 23 0 c20 0 39 -25 117 -160z m2420 90 l0 -40 55 0 c48 0 55
-2 55 -20 0 -18 -7 -20 -55 -20 l-55 0 0 -108 c0 -136 11 -157 75 -148 33 4
44 2 49 -10 8 -20 -53 -46 -91 -38 -69 14 -83 45 -83 188 l0 116 -30 0 c-23 0
-30 4 -30 20 0 16 7 20 30 20 27 0 30 3 30 33 0 38 6 47 32 47 14 0 18 -8 18
-40z m-1770 -62 c48 -33 72 -70 77 -122 l6 -46 -142 0 c-95 0 -141 -4 -141
-11 0 -24 36 -70 66 -84 44 -21 93 -19 133 6 31 19 35 19 50 4 15 -15 14 -17
-9 -35 -86 -66 -226 -35 -275 61 -22 42 -19 124 6 169 43 77 158 106 229 58z
m499 2 c99 -50 118 -193 36 -275 -80 -80 -206 -64 -272 34 -17 26 -23 48 -23
91 0 66 24 110 79 147 44 30 126 31 180 3z m1491 -7 c0 -16 4 -23 8 -17 15 22
58 44 84 44 23 0 28 -4 28 -25 0 -20 -5 -25 -26 -25 -71 0 -94 -45 -94 -185
l0 -105 -25 0 -25 0 0 170 0 170 25 0 c21 0 25 -5 25 -27z m390 5 c48 -33 72
-70 77 -122 l6 -46 -142 0 c-92 0 -141 -4 -141 -10 0 -27 32 -69 64 -84 46
-22 94 -20 134 4 27 17 37 18 48 9 22 -18 -17 -54 -72 -68 -79 -20 -154 9
-202 80 -20 29 -23 44 -20 96 6 101 68 163 163 163 38 0 61 -6 85 -22z m361
-16 c29 -32 29 -33 29 -167 0 -128 -1 -135 -20 -135 -13 0 -20 7 -20 20 0 19
-1 20 -24 5 -61 -41 -145 -38 -192 6 -37 35 -34 99 7 133 28 23 39 26 115 26
l84 0 0 33 c0 44 -27 68 -82 74 -31 3 -54 -2 -82 -16 -31 -16 -42 -18 -48 -8
-24 37 44 69 136 65 62 -3 71 -7 97 -36z m169 12 c0 -24 1 -24 17 -9 51 52
180 44 212 -12 9 -16 12 -15 40 11 40 38 126 48 177 21 52 -28 64 -65 64 -204
l0 -121 -25 0 -25 0 0 119 c0 104 -2 121 -20 144 -27 35 -78 44 -123 22 -48
-23 -57 -50 -57 -175 0 -109 0 -110 -24 -110 -23 0 -24 2 -28 118 -2 64 -9
127 -16 138 -27 51 -119 55 -163 8 -22 -24 -24 -35 -27 -145 -4 -118 -4 -119
-28 -119 l-24 0 0 170 0 170 25 0 c20 0 25 -5 25 -26z"/>
<path d="M4812 2883 c-41 -20 -62 -59 -62 -113 0 -102 81 -155 175 -116 88 37
87 189 -1 231 -41 19 -71 19 -112 -2z"/>
<path d="M3953 2885 c-29 -12 -63 -58 -63 -85 0 -6 41 -10 115 -10 74 0 115 4
115 10 0 28 -35 73 -65 86 -42 17 -61 17 -102 -1z"/>
<path d="M4455 2890 c-92 -38 -99 -192 -10 -234 91 -43 175 12 175 114 0 23
-7 55 -16 71 -24 47 -97 71 -149 49z"/>
<path d="M6328 2884 c-26 -14 -58 -60 -58 -84 0 -6 41 -10 115 -10 65 0 115 4
115 9 0 74 -102 124 -172 85z"/>
<path d="M6648 2739 c-12 -6 -18 -22 -18 -44 0 -42 20 -55 83 -55 60 0 97 29
97 76 l0 34 -72 0 c-40 0 -81 -5 -90 -11z"/>
</g>
</svg>
