<?xml version="1.0" standalone="no"?>
<!DOCTYPE svg PUBLIC "-//W3C//DTD SVG 20010904//EN"
 "http://www.w3.org/TR/2001/REC-SVG-20010904/DTD/svg10.dtd">
<svg version="1.0" xmlns="http://www.w3.org/2000/svg"
 width="2000.000000pt" height="1500.000000pt" viewBox="0 0 2000.000000 1500.000000"
 preserveAspectRatio="xMidYMid meet">

<g transform="translate(0.000000,1500.000000) scale(0.100000,-0.100000)"
fill="#000000" stroke="none">
<path d="M0 7500 l0 -7500 10000 0 10000 0 0 7500 0 7500 -10000 0 -10000 0 0
-7500z m10123 4435 c158 -41 284 -154 341 -306 43 -115 98 -159 196 -159 75 0
110 20 195 108 114 119 228 172 369 172 159 0 309 -76 401 -201 54 -74 82
-161 89 -278 4 -70 10 -92 33 -130 56 -89 172 -122 260 -72 175 98 269 123
395 103 202 -31 371 -198 408 -402 13 -72 8 -129 -20 -236 -20 -78 -16 -118
16 -173 47 -79 143 -107 260 -77 277 72 544 -91 610 -371 31 -130 3 -267 -78
-391 -37 -57 -43 -72 -43 -121 1 -129 89 -199 253 -201 29 0 80 -9 114 -21
129 -43 224 -129 286 -257 29 -61 35 -87 40 -160 10 -175 -35 -283 -174 -418
-51 -50 -98 -103 -104 -118 -14 -39 -12 -121 4 -160 18 -44 67 -82 146 -113
83 -33 136 -70 191 -131 177 -196 170 -489 -14 -671 -61 -61 -98 -84 -191
-122 -80 -32 -112 -59 -137 -114 -43 -93 -16 -166 101 -273 66 -60 87 -87 121
-157 39 -78 42 -92 47 -184 6 -121 -16 -203 -78 -298 -97 -147 -243 -221 -440
-223 -59 0 -116 -33 -155 -88 -25 -36 -30 -53 -30 -100 0 -34 7 -69 16 -87 9
-16 33 -60 53 -96 50 -92 70 -176 63 -269 -7 -96 -29 -158 -83 -240 -75 -113
-192 -188 -332 -212 -65 -11 -83 -10 -155 6 -45 11 -109 21 -142 23 -51 4 -65
1 -94 -19 -91 -62 -118 -145 -87 -264 22 -85 21 -197 -4 -276 -96 -310 -466
-444 -738 -268 -111 71 -193 74 -266 10 -49 -43 -64 -84 -75 -196 -14 -148
-57 -242 -153 -330 -93 -86 -192 -124 -324 -124 -155 0 -272 56 -399 192 -82
87 -127 106 -214 87 -73 -15 -115 -57 -155 -155 -42 -103 -84 -164 -149 -215
-67 -53 -113 -76 -189 -94 -153 -36 -303 -3 -427 95 -63 50 -105 111 -147 214
-38 91 -81 139 -141 155 -93 26 -138 8 -237 -95 -129 -136 -228 -184 -379
-184 -95 0 -168 18 -243 61 -156 88 -236 219 -248 404 -7 112 -32 166 -94 206
-38 24 -57 29 -107 29 -54 0 -69 -5 -130 -41 -112 -68 -164 -83 -285 -83 -124
0 -186 19 -279 84 -108 76 -181 196 -202 331 -10 64 -9 86 6 154 38 170 32
219 -36 279 -56 51 -104 63 -192 46 -230 -44 -378 -9 -507 120 -102 100 -145
205 -145 350 0 115 21 185 81 277 23 36 45 82 49 103 13 78 -35 169 -108 203
-17 8 -68 18 -112 22 -149 12 -236 48 -327 133 -97 91 -148 208 -148 339 1
163 43 257 175 389 77 77 94 99 104 140 27 106 -30 200 -145 244 -82 30 -145
73 -204 137 -238 260 -136 664 197 789 38 14 81 38 97 52 59 56 81 146 52 216
-8 19 -56 76 -108 127 -137 137 -175 230 -166 399 6 96 29 161 89 250 88 131
188 185 368 200 88 8 111 14 150 37 68 43 93 91 89 178 -3 61 -8 77 -41 125
-71 107 -102 254 -78 373 41 195 211 357 407 387 74 11 134 5 242 -25 60 -16
100 -12 154 18 84 46 115 144 84 263 -73 279 95 551 378 611 129 27 258 2 377
-76 102 -66 182 -65 260 6 46 42 56 71 68 193 5 52 17 115 27 140 108 275 413
388 683 253 36 -18 89 -61 148 -119 79 -79 98 -93 142 -104 42 -10 59 -9 104
4 67 19 106 60 137 143 90 242 344 380 583 318z"/>
<path d="M9905 11601 c-57 -26 -88 -65 -124 -151 -79 -191 -254 -310 -456
-310 -150 1 -236 40 -355 161 -101 101 -135 122 -206 121 -70 -1 -128 -31
-163 -88 -23 -36 -30 -61 -36 -130 -12 -149 -54 -242 -152 -335 -98 -94 -190
-131 -329 -130 -110 0 -190 23 -282 83 -107 69 -210 64 -276 -14 -53 -61 -62
-116 -37 -220 25 -102 27 -182 6 -263 -70 -269 -341 -421 -613 -344 -91 25
-144 20 -200 -21 -94 -68 -107 -183 -34 -304 64 -106 77 -154 76 -281 0 -90
-4 -121 -23 -167 -47 -121 -161 -234 -279 -278 -31 -12 -100 -26 -152 -32 -53
-6 -112 -19 -132 -30 -57 -28 -91 -87 -96 -163 -5 -81 9 -109 112 -210 45 -44
94 -103 109 -131 75 -142 76 -309 2 -455 -59 -116 -148 -192 -281 -243 -74
-28 -101 -49 -128 -103 -49 -98 18 -237 131 -273 190 -61 333 -261 333 -464
-1 -151 -40 -237 -161 -356 -47 -47 -94 -101 -104 -120 -33 -65 -19 -164 34
-224 30 -34 87 -55 182 -65 147 -15 229 -53 320 -148 92 -96 130 -192 130
-329 0 -110 -23 -189 -84 -283 -33 -51 -42 -74 -45 -122 -3 -34 1 -72 8 -89
25 -61 116 -120 185 -120 11 0 53 9 94 20 181 48 349 5 476 -124 131 -133 175
-304 125 -481 -24 -84 -25 -114 -5 -163 53 -124 191 -159 321 -79 88 55 158
79 249 84 186 12 340 -66 444 -226 43 -68 66 -143 76 -251 10 -106 42 -163
117 -201 41 -21 111 -25 155 -8 15 5 66 50 113 98 150 156 315 211 493 165
175 -45 300 -163 356 -336 45 -140 218 -172 323 -61 16 16 39 57 52 90 77 196
258 323 460 323 149 0 245 -46 372 -174 97 -100 143 -123 216 -109 115 22 161
82 177 234 15 148 55 233 149 321 105 98 203 133 356 126 114 -6 154 -19 262
-86 62 -38 79 -43 127 -43 61 0 87 10 130 50 63 58 77 125 48 236 -49 186 -7
351 123 481 128 128 306 174 481 124 84 -24 114 -25 163 -5 124 53 159 191 79
321 -55 88 -79 158 -84 249 -10 154 37 275 147 379 79 74 158 115 250 128 171
24 184 28 219 56 68 54 99 154 70 229 -6 15 -52 68 -103 118 -98 96 -136 154
-161 250 -38 148 -5 299 96 431 50 65 111 108 211 150 45 18 90 41 100 51 33
30 58 89 58 138 0 86 -55 158 -150 195 -82 32 -129 62 -187 120 -91 92 -143
218 -143 344 0 147 53 261 171 369 102 93 128 149 108 237 -22 97 -86 143
-214 154 -138 12 -220 46 -310 128 -71 64 -107 120 -136 206 -18 55 -21 80
-17 171 6 119 18 158 85 266 38 61 43 77 43 128 0 32 -7 71 -14 86 -24 45 -80
88 -133 100 -43 11 -62 9 -135 -8 -146 -36 -259 -23 -380 41 -107 57 -208 193
-237 318 -17 72 -13 159 10 250 26 100 22 139 -20 197 -69 95 -184 108 -305
35 -106 -64 -154 -77 -281 -76 -90 0 -121 4 -167 23 -121 47 -234 162 -280
284 -11 29 -24 94 -29 146 -12 112 -34 161 -90 198 -31 20 -57 28 -104 31 -81
5 -109 -10 -210 -113 -113 -117 -219 -165 -360 -165 -215 0 -406 142 -474 352
-35 108 -151 157 -256 109z m215 -2182 c282 -35 496 -145 627 -323 33 -44 43
-67 43 -96 0 -48 -30 -86 -79 -101 -50 -15 -85 3 -139 73 -94 122 -264 206
-470 233 l-53 7 3 -117 3 -117 60 -23 c84 -31 199 -90 269 -138 122 -83 284
-259 301 -329 10 -38 -20 -93 -60 -112 -65 -31 -97 -16 -170 80 -84 110 -190
194 -327 259 l-73 35 -5 -597 -5 -598 -30 -54 c-52 -94 -148 -158 -280 -186
-88 -18 -132 -18 -218 0 -141 30 -243 100 -293 201 -22 45 -26 64 -22 116 2
35 12 80 23 101 42 88 163 173 283 198 71 14 222 7 279 -14 l42 -16 3 729 3
728 25 27 c14 15 34 31 45 35 28 12 116 12 215 -1z m-1632 -2641 l-3 -333 -37
-3 -38 -3 0 335 0 336 40 0 40 0 -2 -332z m1062 -3 l0 -335 -40 0 c-38 0 -40
1 -40 32 l0 31 -22 -20 c-38 -34 -64 -43 -123 -43 -66 0 -100 16 -143 65 -94
106 -72 319 41 393 72 48 169 40 228 -19 19 -19 19 -18 19 106 l0 125 40 0 40
0 0 -335z m908 289 c28 -11 32 -18 32 -48 0 -20 -3 -36 -6 -36 -3 0 -28 7 -55
16 -107 35 -203 -3 -203 -80 0 -48 22 -68 129 -121 103 -50 150 -94 161 -150
15 -79 -20 -151 -91 -185 -40 -19 -58 -22 -133 -18 -55 3 -99 11 -119 21 -29
15 -33 22 -33 58 0 22 3 39 8 37 64 -34 95 -42 154 -42 52 -1 72 3 94 20 36
27 47 67 29 110 -11 27 -29 40 -102 74 -146 70 -183 109 -183 196 0 131 166
209 318 148z m-3131 -199 c41 -115 81 -231 91 -257 l17 -48 89 243 c49 133 93
250 98 260 6 13 21 17 58 17 41 0 50 -3 50 -17 0 -10 11 -144 25 -298 32 -356
33 -325 -10 -325 -20 0 -38 6 -40 13 -2 6 -13 120 -24 251 -11 131 -22 240
-24 242 -2 2 -41 -99 -87 -224 -45 -125 -87 -235 -92 -244 -6 -12 -21 -18 -46
-18 l-38 0 -84 241 c-46 133 -86 237 -88 231 -2 -6 -11 -118 -20 -249 l-17
-238 -40 0 -40 0 3 45 c2 25 12 166 23 313 10 148 19 271 19 273 0 3 23 4 52
2 l52 -3 73 -210z m3421 113 l3 -58 64 0 65 0 0 -30 0 -30 -65 0 -65 0 0 -159
c0 -132 3 -162 16 -175 18 -18 66 -21 95 -6 17 10 19 7 19 -29 0 -26 -5 -41
-16 -45 -28 -11 -94 -6 -129 8 -57 24 -65 53 -65 241 l0 165 -40 0 c-38 0 -40
2 -40 30 0 28 2 30 40 30 l40 0 0 61 0 60 38 -3 37 -3 3 -57z m-2539 -81 c54
-36 81 -96 81 -180 l0 -67 -161 0 -161 0 6 -32 c8 -39 40 -76 83 -94 42 -18
125 -18 168 0 l35 15 0 -38 c0 -35 -3 -39 -39 -49 -103 -31 -231 0 -284 69
-39 51 -49 87 -50 164 0 111 42 186 128 227 55 26 142 19 194 -15z m686 22
c52 -14 116 -81 134 -139 19 -65 16 -160 -7 -212 -56 -127 -214 -172 -331 -95
-92 61 -123 216 -67 330 52 106 151 149 271 116z m2323 -31 l3 -38 -45 0 c-37
0 -48 -5 -70 -30 -37 -45 -46 -90 -46 -243 l0 -138 -37 3 -38 3 -3 185 c-2
102 0 209 3 238 6 51 7 52 41 52 32 0 34 -2 34 -36 l0 -37 22 28 c25 32 73 56
108 52 21 -2 25 -8 28 -39z m324 31 c48 -13 101 -67 116 -118 7 -21 12 -64 12
-95 l0 -56 -161 0 -161 0 6 -32 c8 -39 40 -76 83 -94 42 -18 125 -18 168 0
l35 15 0 -38 c0 -35 -3 -39 -39 -49 -65 -20 -150 -15 -208 12 -174 82 -173
366 2 447 45 21 93 24 147 8z m507 -18 c60 -43 66 -66 66 -271 l0 -185 -37 -3
c-35 -3 -38 -1 -38 22 l0 25 -36 -24 c-44 -30 -118 -34 -170 -9 -74 35 -99
143 -47 205 36 42 75 57 173 65 l82 7 -6 41 c-4 23 -15 49 -26 60 -28 29 -104
32 -167 8 l-53 -20 0 39 c0 21 1 39 3 39 1 0 20 7 42 15 59 23 173 15 214 -14z
m477 14 c19 -8 42 -27 51 -43 l16 -29 29 33 c69 78 198 68 245 -19 15 -27 18
-61 18 -222 l0 -190 -37 -3 -36 -3 -4 186 -3 187 -28 24 c-33 28 -68 31 -107
8 -55 -33 -64 -63 -68 -241 l-4 -163 -34 0 -34 0 0 153 c0 83 -5 170 -10 192
-16 69 -68 92 -130 60 -55 -28 -64 -62 -68 -243 l-4 -163 -36 3 -37 3 -3 238
-2 237 40 0 c38 0 40 -1 40 -32 l0 -33 18 22 c39 51 119 67 188 38z m-2745
-175 c38 -96 69 -177 69 -180 1 -4 21 50 106 288 l26 72 39 0 c21 0 39 -4 39
-9 0 -4 -43 -122 -95 -262 -59 -158 -105 -266 -123 -288 -40 -49 -98 -81 -149
-81 -42 0 -43 1 -43 34 0 31 2 34 40 39 53 7 87 30 107 72 18 37 23 22 -131
388 l-45 108 46 -3 46 -3 68 -175z m-2464 -802 l76 -153 74 153 74 152 69 0
c68 0 70 -1 70 -25 0 -22 -4 -25 -35 -25 l-35 0 0 -145 0 -145 36 0 c31 0 35
-3 32 -22 -3 -22 -7 -23 -98 -23 -91 0 -95 1 -98 23 -3 19 1 22 32 22 l36 0
-1 118 0 117 -72 -142 c-45 -91 -77 -143 -87 -143 -10 0 -42 52 -87 143 l-72
142 0 -117 -1 -118 36 0 c31 0 35 -3 32 -22 -3 -22 -7 -23 -98 -23 -91 0 -95
1 -98 23 -3 19 1 22 32 22 l36 0 0 145 0 145 -35 0 c-27 0 -35 4 -35 18 0 29
8 32 77 32 l63 0 77 -152z m2263 -18 l0 -170 30 0 c25 0 30 -4 30 -25 0 -25
-1 -25 -85 -25 -84 0 -85 0 -85 25 0 21 5 25 30 25 l30 0 0 145 0 145 -30 0
c-25 0 -30 4 -30 25 0 24 3 25 55 25 l55 0 0 -170z m2170 0 c0 -160 1 -170 19
-170 18 0 35 -33 23 -44 -14 -14 -72 -5 -84 13 -11 18 -12 18 -42 0 -18 -11
-50 -19 -74 -19 -34 0 -49 6 -79 33 -31 29 -37 41 -40 88 -5 61 16 105 62 135
30 20 110 23 127 6 21 -21 28 -13 28 33 0 43 -1 45 -30 45 -22 0 -30 5 -30 18
0 28 9 32 67 32 l53 0 0 -170z m-3080 31 c27 -19 35 -48 25 -88 -11 -45 -105
-65 -178 -37 -28 10 -21 -32 9 -55 33 -26 100 -28 133 -4 22 15 25 15 37 -2 7
-10 11 -21 9 -25 -11 -18 -77 -40 -120 -40 -139 0 -194 143 -92 238 46 44 125
49 177 13z m1945 9 c66 -26 97 -132 56 -197 -29 -47 -73 -66 -138 -61 -41 4
-60 11 -83 33 -60 57 -63 140 -9 194 47 47 105 57 174 31z m2073 -13 c3 -12
-4 -20 -17 -24 -25 -6 -23 -15 20 -106 27 -57 29 -59 38 -36 5 13 21 49 35 80
24 55 24 57 5 62 -11 3 -19 14 -19 27 0 20 4 21 68 18 61 -3 67 -5 70 -25 3
-18 -1 -23 -21 -23 -21 0 -31 -17 -86 -140 -35 -77 -72 -151 -82 -164 -30 -38
-73 -51 -120 -37 -38 12 -46 24 -31 48 6 9 17 10 38 4 38 -11 68 1 90 34 17
27 17 28 -39 141 -44 89 -61 114 -77 114 -15 0 -20 7 -20 25 0 26 1 26 72 23
61 -3 73 -6 76 -21z"/>
<path d="M9281 6842 c-50 -25 -75 -80 -75 -162 0 -105 49 -170 126 -170 88 0
137 63 138 175 0 73 -22 121 -69 152 -41 28 -74 29 -120 5z"/>
<path d="M8032 6840 c-18 -11 -40 -36 -48 -55 -27 -65 -28 -65 112 -65 l126 0
-7 33 c-19 92 -106 134 -183 87z"/>
<path d="M8765 6851 c-55 -24 -85 -85 -85 -172 0 -109 53 -173 141 -172 88 1
139 64 139 173 0 109 -44 170 -127 176 -26 2 -57 0 -68 -5z"/>
<path d="M11413 6841 c-34 -22 -63 -67 -63 -101 0 -19 6 -20 124 -20 l123 0
-7 41 c-15 84 -106 125 -177 80z"/>
<path d="M11878 6644 c-32 -17 -45 -55 -32 -93 19 -53 125 -60 169 -11 10 11
20 42 23 70 l5 50 -69 0 c-41 -1 -80 -7 -96 -16z"/>
<path d="M11593 5922 c-31 -5 -63 -49 -63 -87 0 -49 33 -85 79 -85 62 0 81 21
81 90 0 32 -5 62 -10 65 -19 12 -65 21 -87 17z"/>
<path d="M8551 5917 c-27 -13 -49 -43 -39 -52 11 -12 107 -8 122 5 20 16 20
25 0 44 -19 19 -50 20 -83 3z"/>
<path d="M10510 5917 c-51 -26 -64 -113 -22 -149 37 -33 100 -28 128 10 14 18
18 79 8 107 -7 17 -54 45 -76 45 -7 0 -24 -6 -38 -13z"/>
</g>
</svg>
